<svg width="18" height="18" viewBox="0 0 18 18" fill="none" xmlns="http://www.w3.org/2000/svg">
<path d="M13.7581 13.8527C13.9777 13.6853 14.0201 13.3715 13.8526 13.1519C13.6852 12.9323 13.3715 12.89 13.1519 13.0574L13.7581 13.8527ZM9 15V15.5001L9.00817 15.5L9 15ZM0.75 9.00002L0.309422 8.76361C0.232605 8.90676 0.230131 9.07831 0.302786 9.22363L0.75 9.00002ZM4.84845 4.94241C5.06792 4.77482 5.10998 4.46104 4.94239 4.24157C4.7748 4.0221 4.46102 3.98004 4.24155 4.14763L4.84845 4.94241ZM7.31104 2.69318C7.04217 2.75611 6.87522 3.0251 6.93816 3.29398C7.0011 3.56285 7.27008 3.7298 7.53896 3.66686L7.31104 2.69318ZM9 3.00002L8.99883 3.50002H9V3.00002ZM17.25 9.00002L17.691 9.23572C17.7674 9.0927 17.7697 8.92147 17.6972 8.77641L17.25 9.00002ZM15.2474 11.0706C15.0696 11.2819 15.0968 11.5973 15.3081 11.7751C15.5194 11.9529 15.8348 11.9257 16.0126 11.7144L15.2474 11.0706ZM10.9558 10.9309C11.1441 10.7289 11.1329 10.4125 10.9309 10.2242C10.7288 10.036 10.4124 10.0471 10.2242 10.2492L10.9558 10.9309ZM7.75086 7.77583C7.95289 7.58757 7.96406 7.27119 7.77581 7.06916C7.58755 6.86713 7.27117 6.85596 7.06914 7.04421L7.75086 7.77583ZM13.1519 13.0574C11.9547 13.9699 10.4969 14.4755 8.99183 14.5001L9.00817 15.5C10.7267 15.4719 12.3912 14.8946 13.7581 13.8527L13.1519 13.0574ZM9 14.5C6.57475 14.5 4.63526 13.1132 3.27102 11.658C2.59346 10.9353 2.0724 10.2107 1.7208 9.66626C1.54531 9.39453 1.41285 9.16896 1.32495 9.0127C1.28102 8.9346 1.24828 8.87391 1.22691 8.83354C1.21623 8.81336 1.2084 8.79826 1.20344 8.78862C1.20096 8.78379 1.1992 8.78034 1.19816 8.77829C1.19764 8.77726 1.1973 8.77659 1.19715 8.77627C1.19707 8.77612 1.19703 8.77605 1.19704 8.77607C1.19705 8.77608 1.19709 8.77617 1.19709 8.77617C1.19715 8.77628 1.19721 8.77641 0.75 9.00002C0.302786 9.22363 0.302874 9.2238 0.302974 9.224C0.303022 9.2241 0.303134 9.22432 0.303231 9.22451C0.303425 9.2249 0.303666 9.22538 0.303952 9.22595C0.304526 9.22709 0.305284 9.22859 0.306226 9.23045C0.308111 9.23417 0.310734 9.23931 0.314091 9.24584C0.320805 9.2589 0.33046 9.2775 0.343034 9.30126C0.368179 9.34878 0.405018 9.417 0.453372 9.50296C0.550044 9.67482 0.692972 9.91801 0.880762 10.2088C1.25572 10.7894 1.81279 11.5647 2.54148 12.342C3.98974 13.8868 6.17525 15.5 9 15.5V14.5ZM1.19058 9.23643C2.08979 7.56067 3.33696 6.09659 4.84845 4.94241L4.24155 4.14763C2.61674 5.38835 1.27605 6.96221 0.309422 8.76361L1.19058 9.23643ZM7.53896 3.66686C8.01747 3.55485 8.50738 3.49886 8.99883 3.50002L9.00118 2.50002C8.43222 2.49868 7.86503 2.5635 7.31104 2.69318L7.53896 3.66686ZM9 3.50002C11.4252 3.50002 13.3647 4.8868 14.729 6.34199C15.4065 7.06472 15.9276 7.78936 16.2792 8.33378C16.4547 8.60551 16.5872 8.83107 16.6751 8.98734C16.719 9.06544 16.7517 9.12612 16.7731 9.1665C16.7838 9.18668 16.7916 9.20177 16.7966 9.21142C16.799 9.21624 16.8008 9.2197 16.8018 9.22175C16.8024 9.22278 16.8027 9.22345 16.8029 9.22376C16.8029 9.22392 16.803 9.22399 16.803 9.22396C16.803 9.22395 16.8029 9.22387 16.8029 9.22386C16.8029 9.22376 16.8028 9.22363 17.25 9.00002C17.6972 8.77641 17.6971 8.77624 17.697 8.77604C17.697 8.77594 17.6969 8.77572 17.6968 8.77552C17.6966 8.77514 17.6963 8.77466 17.696 8.77409C17.6955 8.77295 17.6947 8.77145 17.6938 8.76959C17.6919 8.76587 17.6893 8.76072 17.6859 8.75419C17.6792 8.74113 17.6695 8.72254 17.657 8.69878C17.6318 8.65126 17.595 8.58304 17.5466 8.49708C17.45 8.32521 17.307 8.08203 17.1192 7.79126C16.7443 7.21067 16.1872 6.43532 15.4585 5.65805C14.0103 4.11324 11.8248 2.50002 9 2.50002V3.50002ZM16.809 8.76431C16.3702 9.58533 15.8468 10.3583 15.2474 11.0706L16.0126 11.7144C16.6568 10.9489 17.2193 10.1181 17.691 9.23572L16.809 8.76431ZM10.2242 10.2492C9.78793 10.7173 9.1309 10.9101 8.51086 10.7517L8.26341 11.7206C9.23777 11.9695 10.2702 11.6666 10.9558 10.9309L10.2242 10.2492ZM8.51086 10.7517C7.89081 10.5934 7.40664 10.1092 7.2483 9.48917L6.27939 9.73661C6.52823 10.711 7.28906 11.4718 8.26341 11.7206L8.51086 10.7517ZM7.2483 9.48917C7.08995 8.86912 7.28267 8.21209 7.75086 7.77583L7.06914 7.04421C6.33341 7.72977 6.03056 8.76225 6.27939 9.73661L7.2483 9.48917Z" fill="#333333"/>
<path d="M0.75 0.75L17.25 17.25" stroke="#333333" stroke-linecap="round" stroke-linejoin="round"/>
</svg>
